<svg xmlns="http://www.w3.org/2000/svg" width="68" height="139" viewBox="0 0 68 139" version="1.1"><g stroke="none" stroke-width="1" fill="none" fill-rule="evenodd"><g transform="translate(-36.000000, -21.000000)" stroke="#333333"><g transform="translate(36.000000, 21.000000)"><path d="M12 0C5.4 0 0 5.4 0 12L0 127C0 133.6 5.4 139 12 139L56 139C62.6 139 68 133.6 68 127L68 12C68 5.4 62.6 0 56 0L12 0ZM8 18C6.3 18 5 19.3 5 21L5 118C5 119.7 6.3 121 8 121L60 121C61.7 121 63 119.7 63 118L63 21C63 19.3 61.7 18 60 18L8 18ZM34.5 135C37.5 135 40 132.5 40 129.5 40 126.5 37.5 124 34.5 124 31.5 124 29 126.5 29 129.5 29 132.5 31.5 135 34.5 135Z"/></g></g></g></svg>
